<?xml version="1.0" encoding="UTF-8" standalone="no"?>
<!-- Created with Inkscape (http://www.inkscape.org/) -->

<svg
   xmlns:dc="http://purl.org/dc/elements/1.1/"
   xmlns:cc="http://creativecommons.org/ns#"
   xmlns:rdf="http://www.w3.org/1999/02/22-rdf-syntax-ns#"
   xmlns:svg="http://www.w3.org/2000/svg"
   xmlns="http://www.w3.org/2000/svg"
   xmlns:sodipodi="http://sodipodi.sourceforge.net/DTD/sodipodi-0.dtd"
   xmlns:inkscape="http://www.inkscape.org/namespaces/inkscape"
   width="3850"
   height="2166"
   viewBox="0 0 1018.6458 573.08752"
   version="1.1"
   id="svg821"
   inkscape:version="0.92.5 (2060ec1f9f, 2020-04-08)"
   sodipodi:docname="social-preview.svg">
  <defs
     id="defs815" />
  <sodipodi:namedview
     id="base"
     pagecolor="#ffffff"
     bordercolor="#666666"
     borderopacity="1.0"
     inkscape:pageopacity="0.0"
     inkscape:pageshadow="2"
     inkscape:zoom="0.24748737"
     inkscape:cx="2045.6174"
     inkscape:cy="901.70933"
     inkscape:document-units="mm"
     inkscape:current-layer="layer1"
     showgrid="false"
     units="px"
     inkscape:window-width="1920"
     inkscape:window-height="1019"
     inkscape:window-x="0"
     inkscape:window-y="30"
     inkscape:window-maximized="1"
     showguides="true"
     inkscape:guide-bbox="true" />
  <metadata
     id="metadata818">
    <rdf:RDF>
      <cc:Work
         rdf:about="">
        <dc:format>image/svg+xml</dc:format>
        <dc:type
           rdf:resource="http://purl.org/dc/dcmitype/StillImage" />
        <dc:title></dc:title>
      </cc:Work>
    </rdf:RDF>
  </metadata>
  <g
     inkscape:label="Layer 1"
     inkscape:groupmode="layer"
     id="layer1"
     transform="translate(0,276.08754)">
    <g
       id="g3959"
       transform="translate(0,-88.90005)">
      <path
         sodipodi:nodetypes="ccccc"
         inkscape:connector-curvature="0"
         id="path1465"
         d="m 0,296.99996 1018.6458,-72.5715 V -68.125036 H 0 Z"
         style="fill:#a1affc;fill-opacity:1;stroke:none;stroke-width:0.26458332px;stroke-linecap:butt;stroke-linejoin:miter;stroke-opacity:1" />
      <path
         sodipodi:nodetypes="ccccc"
         inkscape:connector-curvature="0"
         id="path1467"
         d="m 1018.6458,281.91871 v -469.1062 H 0 v 399.52078 z"
         style="fill:#424d83;fill-opacity:1;stroke:none;stroke-width:0.26458332px;stroke-linecap:butt;stroke-linejoin:miter;stroke-opacity:1" />
    </g>
    <g
       transform="matrix(4.6130184,0,0,4.6130184,87.103515,-1430.4104)"
       id="layer1-6"
       inkscape:label="Layer 1">
      <g
         id="text12"
         style="font-style:normal;font-weight:normal;font-size:10.58333302px;line-height:1.25;font-family:sans-serif;letter-spacing:0px;word-spacing:0px;fill:#fffffb;fill-opacity:1;stroke:none;stroke-width:0.26458332"
         aria-label="RAINERSIMON.IO">
        <path
           id="path815"
           style="font-style:normal;font-variant:normal;font-weight:bold;font-stretch:normal;font-family:'Reem Kufi';-inkscape-font-specification:'Reem Kufi Bold';fill:#fffffb;fill-opacity:1;stroke-width:0.26458332"
           d="m 6.6624037,283.42258 q 0.98425,0 1.6615833,0.32808 0.6773333,0.3175 1.0265833,0.91017 0.3598334,0.58208 0.3598334,1.38642 0,0.47625 -0.1481667,0.9525 -0.1375833,0.47625 -0.4656667,0.86783 -0.3174999,0.39158 -0.8466666,0.635 -0.5291667,0.23283 -1.3123333,0.23283 H 5.8369038 v 2.4765 H 4.3023205 v -7.78933 z m 0.2645834,3.83117 q 0.4656666,0 0.7196666,-0.1905 0.2645833,-0.20109 0.3704167,-0.46567 0.1058333,-0.27517 0.1058333,-0.49742 0,-0.127 -0.042333,-0.3175 -0.03175,-0.20108 -0.1481667,-0.40216 -0.1164167,-0.20109 -0.3598333,-0.33867 -0.2328333,-0.13758 -0.635,-0.13758 H 5.8369038 v 2.3495 z m 1.4393333,0.9525 1.9261666,3.00566 H 8.5039037 l -1.9684999,-2.96333 z"
           inkscape:connector-curvature="0" />
        <path
           id="path817"
           style="font-style:normal;font-variant:normal;font-weight:bold;font-stretch:normal;font-family:'Reem Kufi';-inkscape-font-specification:'Reem Kufi Bold';fill:#fffffb;fill-opacity:1;stroke-width:0.26458332"
           d="m 10.684059,291.21191 3.513667,-8.09625 h 0.08467 l 3.513667,8.09625 h -1.778 l -2.243667,-5.69383 1.11125,-0.762 -2.688166,6.45583 z m 2.402417,-2.81516 h 2.338916 l 0.53975,1.29116 h -3.354916 z"
           inkscape:connector-curvature="0" />
        <path
           id="path819"
           style="font-style:normal;font-variant:normal;font-weight:bold;font-stretch:normal;font-family:'Reem Kufi';-inkscape-font-specification:'Reem Kufi Bold';fill:#fffffb;fill-opacity:1;stroke-width:0.26458332"
           d="m 18.928467,283.42258 h 1.534583 v 7.78933 h -1.534583 z"
           inkscape:connector-curvature="0" />
        <path
           id="path821"
           style="font-style:normal;font-variant:normal;font-weight:bold;font-stretch:normal;font-family:'Reem Kufi';-inkscape-font-specification:'Reem Kufi Bold';fill:#fffffb;fill-opacity:1;stroke-width:0.26458332"
           d="m 29.44829,291.52941 -5.9055,-5.334 0.455083,0.254 0.03175,4.7625 h -1.55575 v -8.09625 h 0.0635 l 5.7785,5.31284 -0.338667,-0.14817 -0.03175,-4.85775 h 1.545167 v 8.10683 z"
           inkscape:connector-curvature="0" />
        <path
           id="path823"
           style="font-style:normal;font-variant:normal;font-weight:bold;font-stretch:normal;font-family:'Reem Kufi';-inkscape-font-specification:'Reem Kufi Bold';fill:#fffffb;fill-opacity:1;stroke-width:0.26458332"
           d="m 31.501444,283.42258 h 5.312833 v 1.48167 h -3.77825 v 1.66158 h 3.344333 v 1.48167 h -3.344333 v 1.68275 h 3.926417 v 1.48166 h -5.461 z"
           inkscape:connector-curvature="0" />
        <path
           id="path825"
           style="font-style:normal;font-variant:normal;font-weight:bold;font-stretch:normal;font-family:'Reem Kufi';-inkscape-font-specification:'Reem Kufi Bold';fill:#fffffb;fill-opacity:1;stroke-width:0.26458332"
           d="m 40.910008,283.42258 q 0.98425,0 1.661583,0.32808 0.677334,0.3175 1.026584,0.91017 0.359833,0.58208 0.359833,1.38642 0,0.47625 -0.148167,0.9525 -0.137583,0.47625 -0.465666,0.86783 -0.3175,0.39158 -0.846667,0.635 -0.529167,0.23283 -1.312333,0.23283 h -1.100667 v 2.4765 h -1.534583 v -7.78933 z m 0.264583,3.83117 q 0.465667,0 0.719667,-0.1905 0.264583,-0.20109 0.370417,-0.46567 0.105833,-0.27517 0.105833,-0.49742 0,-0.127 -0.04233,-0.3175 -0.03175,-0.20108 -0.148167,-0.40216 -0.116417,-0.20109 -0.359833,-0.33867 -0.232834,-0.13758 -0.635,-0.13758 h -1.100667 v 2.3495 z m 1.439334,0.9525 1.926166,3.00566 h -1.788583 l -1.9685,-2.96333 z"
           inkscape:connector-curvature="0" />
        <path
           id="path827"
           style="font-style:normal;font-variant:normal;font-weight:bold;font-stretch:normal;font-family:'Reem Kufi';-inkscape-font-specification:'Reem Kufi Bold';fill:#fffffb;fill-opacity:1;stroke-width:0.26458332"
           d="m 49.969329,285.30641 q -0.4445,-0.24341 -0.910166,-0.40216 -0.455084,-0.15875 -0.85725,-0.15875 -0.497417,0 -0.783167,0.20108 -0.28575,0.20108 -0.28575,0.60325 0,0.27517 0.211667,0.49742 0.22225,0.21166 0.560917,0.381 0.34925,0.16933 0.719666,0.30691 0.455083,0.16934 0.878417,0.43392 0.423333,0.254 0.6985,0.70908 0.275166,0.4445 0.275166,1.18534 0,0.59266 -0.306916,1.10066 -0.306917,0.508 -0.899584,0.8255 -0.592666,0.30692 -1.460499,0.30692 -0.66675,0 -1.36525,-0.20108 -0.687917,-0.20109 -1.30175,-0.635 l 0.677333,-1.19592 q 0.402167,0.29633 0.92075,0.48683 0.518583,0.1905 0.931333,0.1905 0.275167,0 0.550334,-0.0741 0.285749,-0.0847 0.465666,-0.27517 0.1905,-0.1905 0.1905,-0.52916 0,-0.23284 -0.15875,-0.42334 -0.148167,-0.1905 -0.41275,-0.34925 -0.254,-0.15875 -0.560916,-0.27516 -0.359834,-0.13759 -0.740834,-0.3175 -0.381,-0.17992 -0.719666,-0.43392 -0.328084,-0.26458 -0.53975,-0.64558 -0.201084,-0.39159 -0.201084,-0.9525 0,-0.67734 0.296334,-1.17475 0.306916,-0.49742 0.85725,-0.78317 0.550333,-0.29633 1.27,-0.32808 0.941916,0 1.523999,0.22225 0.592667,0.22225 1.058334,0.52916 z"
           inkscape:connector-curvature="0" />
        <path
           id="path829"
           style="font-style:normal;font-variant:normal;font-weight:bold;font-stretch:normal;font-family:'Reem Kufi';-inkscape-font-specification:'Reem Kufi Bold';fill:#fffffb;fill-opacity:1;stroke-width:0.26458332"
           d="m 51.980146,283.42258 h 1.534584 v 7.78933 h -1.534584 z"
           inkscape:connector-curvature="0" />
        <path
           id="path831"
           style="font-style:normal;font-variant:normal;font-weight:bold;font-stretch:normal;font-family:'Reem Kufi';-inkscape-font-specification:'Reem Kufi Bold';fill:#fffffb;fill-opacity:1;stroke-width:0.26458332"
           d="m 55.525553,291.21191 v -8.10683 h 0.01058 l 4.328583,6.13833 -0.656166,-0.14816 4.318,-5.99017 h 0.02117 v 8.10683 h -1.534583 v -4.64608 l 0.09525,0.79375 -2.63525,3.7465 h -0.02117 l -2.709333,-3.7465 0.264583,-0.73025 v 4.58258 z"
           inkscape:connector-curvature="0" />
        <path
           id="path833"
           style="font-style:normal;font-variant:normal;font-weight:bold;font-stretch:normal;font-family:'Reem Kufi';-inkscape-font-specification:'Reem Kufi Bold';fill:#fffffb;fill-opacity:1;stroke-width:0.26458332"
           d="m 65.082304,287.32783 q 0,-0.80433 0.306916,-1.524 0.306917,-0.71967 0.846667,-1.27 0.550333,-0.56092 1.27,-0.87842 0.719667,-0.3175 1.545167,-0.3175 0.814916,0 1.534583,0.3175 0.719667,0.3175 1.27,0.87842 0.560916,0.55033 0.867833,1.27 0.3175,0.71967 0.3175,1.524 0,0.8255 -0.3175,1.54517 -0.306917,0.71966 -0.867833,1.27 -0.550333,0.53975 -1.27,0.84666 -0.719667,0.30692 -1.534583,0.30692 -0.8255,0 -1.545167,-0.30692 -0.719667,-0.30691 -1.27,-0.84666 -0.53975,-0.55034 -0.846667,-1.27 -0.306916,-0.71967 -0.306916,-1.54517 z m 1.5875,0 q 0,0.68792 0.3175,1.25942 0.328083,0.56091 0.878416,0.89958 0.550334,0.32808 1.23825,0.32808 0.66675,0 1.195917,-0.32808 0.53975,-0.33867 0.846667,-0.89958 0.306916,-0.5715 0.306916,-1.25942 0,-0.70908 -0.3175,-1.27 -0.3175,-0.5715 -0.85725,-0.89958 -0.53975,-0.33867 -1.217083,-0.33867 -0.677333,0 -1.217083,0.33867 -0.53975,0.32808 -0.85725,0.89958 -0.3175,0.56092 -0.3175,1.27 z"
           inkscape:connector-curvature="0" />
        <path
           id="path835"
           style="font-style:normal;font-variant:normal;font-weight:bold;font-stretch:normal;font-family:'Reem Kufi';-inkscape-font-specification:'Reem Kufi Bold';fill:#fffffb;fill-opacity:1;stroke-width:0.26458332"
           d="m 81.549961,291.52941 -5.9055,-5.334 0.455083,0.254 0.03175,4.7625 h -1.55575 v -8.09625 h 0.0635 l 5.7785,5.31284 -0.338666,-0.14817 -0.03175,-4.85775 h 1.545166 v 8.10683 z"
           inkscape:connector-curvature="0" />
        <path
           id="path837"
           style="font-style:normal;font-variant:normal;font-weight:bold;font-stretch:normal;font-family:'Reem Kufi';-inkscape-font-specification:'Reem Kufi Bold';fill:#fffffb;fill-opacity:1;stroke-width:0.26458332"
           d="m 82.75645,290.44991 q 0,-0.32808 0.232834,-0.55033 0.243416,-0.22225 0.529166,-0.22225 0.264584,0 0.497417,0.22225 0.243417,0.22225 0.243417,0.55033 0,0.34925 -0.243417,0.56092 -0.232833,0.20108 -0.497417,0.20108 -0.28575,0 -0.529166,-0.20108 -0.232834,-0.21167 -0.232834,-0.56092 z"
           inkscape:connector-curvature="0" />
        <path
           id="path839"
           style="font-style:normal;font-variant:normal;font-weight:bold;font-stretch:normal;font-family:'Reem Kufi';-inkscape-font-specification:'Reem Kufi Bold';fill:#fffffb;fill-opacity:1;stroke-width:0.26458332"
           d="m 85.423437,283.42258 h 1.534583 v 7.78933 h -1.534583 z"
           inkscape:connector-curvature="0" />
        <path
           id="path841"
           style="font-style:normal;font-variant:normal;font-weight:bold;font-stretch:normal;font-family:'Reem Kufi';-inkscape-font-specification:'Reem Kufi Bold';fill:#fffffb;fill-opacity:1;stroke-width:0.26458332"
           d="m 88.492597,287.32783 q 0,-0.80433 0.306917,-1.524 0.306917,-0.71967 0.846667,-1.27 0.550333,-0.56092 1.27,-0.87842 0.719666,-0.3175 1.545166,-0.3175 0.814917,0 1.534583,0.3175 0.719667,0.3175 1.27,0.87842 0.560917,0.55033 0.867834,1.27 0.3175,0.71967 0.3175,1.524 0,0.8255 -0.3175,1.54517 -0.306917,0.71966 -0.867834,1.27 -0.550333,0.53975 -1.27,0.84666 -0.719666,0.30692 -1.534583,0.30692 -0.8255,0 -1.545166,-0.30692 -0.719667,-0.30691 -1.27,-0.84666 -0.53975,-0.55034 -0.846667,-1.27 -0.306917,-0.71967 -0.306917,-1.54517 z m 1.5875,0 q 0,0.68792 0.3175,1.25942 0.328084,0.56091 0.878417,0.89958 0.550333,0.32808 1.23825,0.32808 0.66675,0 1.195916,-0.32808 0.53975,-0.33867 0.846667,-0.89958 0.306917,-0.5715 0.306917,-1.25942 0,-0.70908 -0.3175,-1.27 -0.3175,-0.5715 -0.85725,-0.89958 -0.53975,-0.33867 -1.217083,-0.33867 -0.677334,0 -1.217084,0.33867 -0.53975,0.32808 -0.85725,0.89958 -0.3175,0.56092 -0.3175,1.27 z"
           inkscape:connector-curvature="0" />
      </g>
      <rect
         style="fill:none;stroke:#ffffff;stroke-width:0.66500002;stroke-miterlimit:4;stroke-dasharray:none;stroke-opacity:1"
         y="279.09625"
         x="0.38943875"
         height="16.441963"
         width="99.974701"
         id="rect16" />
    </g>
    <text
       xml:space="preserve"
       style="font-style:normal;font-weight:normal;font-size:10.58333302px;line-height:1.25;font-family:sans-serif;letter-spacing:0px;word-spacing:0px;fill:#000000;fill-opacity:1;stroke:none;stroke-width:0.26458332"
       x="86.632149"
       y="-25.413742"
       id="text3967"><tspan
         sodipodi:role="line"
         id="tspan3965"
         x="86.632149"
         y="-25.413742"
         style="font-style:normal;font-variant:normal;font-weight:normal;font-stretch:normal;font-size:24.69444466px;font-family:Nunito;-inkscape-font-specification:Nunito;fill:#ffffff;stroke-width:0.26458332">Web Development / Maps / UI / Open Source</tspan></text>
  </g>
</svg>
